<svg width="165" height="34" viewBox="0 0 165 34" fill="none" xmlns="http://www.w3.org/2000/svg">
<path d="M163.115 16.2085L159.234 16.4473C159.168 16.1156 159.025 15.8171 158.806 15.5517C158.587 15.2798 158.299 15.0642 157.941 14.905C157.589 14.7391 157.168 14.6562 156.677 14.6562C156.02 14.6562 155.466 14.7955 155.015 15.0741C154.564 15.3461 154.339 15.711 154.339 16.1687C154.339 16.5335 154.484 16.842 154.776 17.0941C155.068 17.3462 155.569 17.5485 156.279 17.7011L159.045 18.2583C160.531 18.5635 161.639 19.0544 162.369 19.731C163.098 20.4076 163.463 21.2966 163.463 22.3977C163.463 23.3994 163.168 24.2784 162.578 25.0347C161.994 25.7909 161.191 26.3813 160.17 26.8059C159.155 27.2238 157.984 27.4327 156.657 27.4327C154.634 27.4327 153.022 27.0115 151.821 26.169C150.627 25.3199 149.927 24.1656 149.721 22.7062L153.891 22.4873C154.017 23.1042 154.322 23.5752 154.806 23.9003C155.29 24.2187 155.911 24.3779 156.667 24.3779C157.41 24.3779 158.007 24.2353 158.458 23.95C158.916 23.6582 159.148 23.2834 159.155 22.8256C159.148 22.4409 158.985 22.1258 158.667 21.8803C158.349 21.6282 157.858 21.4359 157.194 21.3032L154.547 20.7758C153.055 20.4773 151.944 19.9599 151.214 19.2235C150.491 18.4872 150.129 17.5485 150.129 16.4075C150.129 15.4257 150.395 14.5799 150.925 13.8701C151.463 13.1603 152.216 12.613 153.184 12.2283C154.159 11.8435 155.3 11.6511 156.607 11.6511C158.538 11.6511 160.057 12.0591 161.165 12.875C162.279 13.691 162.929 14.8021 163.115 16.2085Z" fill="#ACABC7"/>
<path d="M147.381 16.2085L143.5 16.4473C143.433 16.1156 143.291 15.8171 143.072 15.5517C142.853 15.2798 142.564 15.0642 142.206 14.905C141.855 14.7391 141.433 14.6562 140.943 14.6562C140.286 14.6562 139.732 14.7955 139.281 15.0741C138.83 15.3461 138.604 15.711 138.604 16.1687C138.604 16.5335 138.75 16.842 139.042 17.0941C139.334 17.3462 139.835 17.5485 140.544 17.7011L143.311 18.2583C144.797 18.5635 145.905 19.0544 146.634 19.731C147.364 20.4076 147.729 21.2966 147.729 22.3977C147.729 23.3994 147.434 24.2784 146.843 25.0347C146.259 25.7909 145.457 26.3813 144.435 26.8059C143.42 27.2238 142.249 27.4327 140.923 27.4327C138.899 27.4327 137.287 27.0115 136.087 26.169C134.893 25.3199 134.193 24.1656 133.987 22.7062L138.156 22.4873C138.282 23.1042 138.588 23.5752 139.072 23.9003C139.556 24.2187 140.176 24.3779 140.933 24.3779C141.676 24.3779 142.273 24.2353 142.724 23.95C143.181 23.6582 143.414 23.2834 143.42 22.8256C143.414 22.4409 143.251 22.1258 142.933 21.8803C142.614 21.6282 142.123 21.4359 141.46 21.3032L138.813 20.7758C137.321 20.4773 136.209 19.9599 135.48 19.2235C134.757 18.4872 134.395 17.5485 134.395 16.4075C134.395 15.4257 134.66 14.5799 135.191 13.8701C135.728 13.1603 136.481 12.613 137.45 12.2283C138.425 11.8435 139.566 11.6511 140.873 11.6511C142.803 11.6511 144.322 12.0591 145.43 12.875C146.545 13.691 147.195 14.8021 147.381 16.2085Z" fill="#ACABC7"/>
<path d="M124.883 27.4327C123.31 27.4327 121.957 27.1143 120.823 26.4775C119.695 25.834 118.826 24.9252 118.216 23.751C117.605 22.5702 117.3 21.1738 117.3 19.5618C117.3 17.9896 117.605 16.6098 118.216 15.4224C118.826 14.235 119.685 13.3096 120.793 12.6462C121.907 11.9828 123.214 11.6511 124.713 11.6511C125.722 11.6511 126.66 11.8136 127.529 12.1387C128.405 12.4571 129.168 12.9381 129.818 13.5815C130.475 14.225 130.986 15.0343 131.351 16.0095C131.715 16.978 131.898 18.1124 131.898 19.4126V20.5768H118.992V17.9498H127.908C127.908 17.3395 127.775 16.7989 127.51 16.3279C127.244 15.8569 126.876 15.4887 126.405 15.2234C125.941 14.9514 125.4 14.8154 124.783 14.8154C124.14 14.8154 123.569 14.9647 123.072 15.2632C122.581 15.5551 122.196 15.9498 121.917 16.4473C121.639 16.9382 121.496 17.4855 121.489 18.0891V20.5867C121.489 21.343 121.629 21.9964 121.907 22.547C122.193 23.0976 122.594 23.5222 123.111 23.8207C123.629 24.1192 124.242 24.2685 124.952 24.2685C125.423 24.2685 125.854 24.2021 126.246 24.0694C126.637 23.9368 126.972 23.7378 127.251 23.4724C127.529 23.2071 127.742 22.882 127.888 22.4973L131.808 22.756C131.609 23.698 131.201 24.5205 130.584 25.2237C129.974 25.9203 129.185 26.4642 128.216 26.8556C127.254 27.2404 126.143 27.4327 124.883 27.4327Z" fill="#ACABC7"/>
<path d="M104.725 18.2981V27.1342H100.486V11.8501H104.526V14.5467H104.705C105.043 13.6578 105.611 12.9546 106.407 12.4372C107.203 11.9132 108.168 11.6511 109.302 11.6511C110.364 11.6511 111.289 11.8833 112.079 12.3477C112.868 12.812 113.482 13.4754 113.919 14.3378C114.357 15.1935 114.576 16.2151 114.576 17.4026V27.1342H110.337V18.1588C110.344 17.2234 110.105 16.4937 109.621 15.9697C109.136 15.439 108.47 15.1736 107.621 15.1736C107.05 15.1736 106.546 15.2964 106.108 15.5418C105.677 15.7872 105.339 16.1455 105.093 16.6165C104.854 17.0808 104.732 17.6414 104.725 18.2981Z" fill="#ACABC7"/>
<path d="M92.8516 27.1343V11.8502H97.0905V27.1343H92.8516ZM94.981 9.87995C94.3508 9.87995 93.8102 9.67099 93.3591 9.25306C92.9146 8.8285 92.6924 8.32102 92.6924 7.73062C92.6924 7.14686 92.9146 6.64601 93.3591 6.22809C93.8102 5.80353 94.3508 5.59125 94.981 5.59125C95.6112 5.59125 96.1485 5.80353 96.593 6.22809C97.0441 6.64601 97.2697 7.14686 97.2697 7.73062C97.2697 8.32102 97.0441 8.8285 96.593 9.25306C96.1485 9.67099 95.6112 9.87995 94.981 9.87995Z" fill="#ACABC7"/>
<path d="M89.8339 16.2085L85.9532 16.4473C85.8868 16.1156 85.7442 15.8171 85.5253 15.5517C85.3064 15.2798 85.0178 15.0642 84.6596 14.905C84.308 14.7391 83.8868 14.6562 83.3959 14.6562C82.7391 14.6562 82.1852 14.7955 81.7341 15.0741C81.283 15.3461 81.0575 15.711 81.0575 16.1687C81.0575 16.5335 81.2034 16.842 81.4953 17.0941C81.7872 17.3462 82.2881 17.5485 82.9979 17.7011L85.7641 18.2583C87.2501 18.5635 88.3579 19.0544 89.0876 19.731C89.8173 20.4076 90.1822 21.2966 90.1822 22.3977C90.1822 23.3994 89.887 24.2784 89.2966 25.0347C88.7128 25.7909 87.9101 26.3813 86.8885 26.8059C85.8736 27.2238 84.7027 27.4327 83.376 27.4327C81.3527 27.4327 79.7407 27.0115 78.54 26.169C77.3459 25.3199 76.6461 24.1656 76.4404 22.7062L80.6097 22.4873C80.7358 23.1042 81.0409 23.5752 81.5252 23.9003C82.0094 24.2187 82.6297 24.3779 83.3859 24.3779C84.1289 24.3779 84.7259 24.2353 85.177 23.95C85.6348 23.6582 85.8669 23.2834 85.8736 22.8256C85.8669 22.4409 85.7044 22.1258 85.386 21.8803C85.0676 21.6282 84.5767 21.4359 83.9133 21.3032L81.2665 20.7758C79.7739 20.4773 78.6627 19.9599 77.933 19.2235C77.2099 18.4872 76.8484 17.5485 76.8484 16.4075C76.8484 15.4257 77.1138 14.5799 77.6444 13.8701C78.1818 13.1603 78.9347 12.613 79.9032 12.2283C80.8784 11.8435 82.0194 11.6511 83.3262 11.6511C85.2566 11.6511 86.7758 12.0591 87.8836 12.875C88.9981 13.691 89.6482 14.8021 89.8339 16.2085Z" fill="#ACABC7"/>
<path d="M69.4876 20.6266V11.8502H73.7265V27.1343H69.6568V24.358H69.4976C69.1526 25.2536 68.5788 25.9733 67.7761 26.5173C66.9801 27.0613 66.0082 27.3333 64.8606 27.3333C63.839 27.3333 62.9401 27.1011 62.164 26.6367C61.3878 26.1724 60.7808 25.5123 60.343 24.6566C59.9118 23.8008 59.6929 22.7759 59.6863 21.5818V11.8502H63.9252V20.8256C63.9319 21.7278 64.174 22.4409 64.6516 22.965C65.1292 23.489 65.7694 23.7511 66.5721 23.7511C67.0829 23.7511 67.5605 23.635 68.005 23.4028C68.4494 23.164 68.8076 22.8124 69.0796 22.348C69.3582 21.8837 69.4942 21.3098 69.4876 20.6266Z" fill="#ACABC7"/>
<path d="M41.9519 27.1342V6.75543H46.1909V14.4174H46.3202C46.506 14.0061 46.7746 13.5882 47.1262 13.1636C47.4844 12.7324 47.9488 12.3742 48.5193 12.0889C49.0964 11.7971 49.8129 11.6511 50.6686 11.6511C51.7831 11.6511 52.8113 11.943 53.7533 12.5268C54.6953 13.1039 55.4482 13.9762 56.0121 15.1438C56.5759 16.3047 56.8579 17.7608 56.8579 19.5121C56.8579 21.2169 56.5826 22.6565 56.032 23.8306C55.488 24.9982 54.745 25.8838 53.803 26.4874C52.8677 27.0845 51.8196 27.383 50.6587 27.383C49.8361 27.383 49.1362 27.247 48.5591 26.975C47.9886 26.703 47.5209 26.3614 47.1561 25.9501C46.7912 25.5322 46.5126 25.1109 46.3202 24.6864H46.1311V27.1342H41.9519ZM46.1013 19.4922C46.1013 20.401 46.2273 21.1937 46.4794 21.8704C46.7315 22.547 47.0964 23.0744 47.574 23.4525C48.0516 23.824 48.6321 24.0097 49.3153 24.0097C50.0052 24.0097 50.589 23.8207 51.0666 23.4426C51.5443 23.0578 51.9058 22.5271 52.1512 21.8505C52.4033 21.1672 52.5294 20.3811 52.5294 19.4922C52.5294 18.6099 52.4066 17.8337 52.1612 17.1637C51.9158 16.4937 51.5542 15.9697 51.0766 15.5915C50.599 15.2134 50.0119 15.0244 49.3153 15.0244C48.6254 15.0244 48.0417 15.2068 47.564 15.5716C47.093 15.9365 46.7315 16.4539 46.4794 17.1239C46.2273 17.7939 46.1013 18.5834 46.1013 19.4922Z" fill="#ACABC7"/>
<path fill-rule="evenodd" clip-rule="evenodd" d="M17.7464 12.4161L22.3317 17.0015L17.9657 21.3674L13.3804 16.7821L17.7464 12.4161ZM13.045 7.71478L10.1702 4.83992C10.0062 4.67594 10.0062 4.41006 10.1702 4.24608L14.2776 0.138614C14.4416 -0.0253713 14.7075 -0.0253714 14.8715 0.138614L28.9136 14.1807C30.4714 15.7386 30.4714 18.2644 28.9136 19.8222L22.667 26.0688L25.5419 28.9436C25.7059 29.1076 25.7059 29.3735 25.5419 29.5375L21.4344 33.6449C21.2705 33.8089 21.0046 33.8089 20.8406 33.6449L6.79853 19.6029C5.24066 18.045 5.24066 15.5192 6.79853 13.9613L13.045 7.71478Z" fill="#ACABC7"/>
</svg>
