<svg width="174" height="35" viewBox="0 0 174 35" fill="none" xmlns="http://www.w3.org/2000/svg">
<path d="M167.55 11.1779H171.632L166.249 25.9667C164.711 30.2259 162.197 32.0892 158.44 31.8822V28.3329C160.54 28.3625 161.605 27.4751 162.315 25.4934L156.252 11.1779H160.422L164.267 21.116L167.55 11.1779Z" fill="#ACABC7"/>
<path d="M149.378 10.7639C152.513 10.7639 154.968 12.9526 154.968 16.8864V25.9667H151.152V17.3596C151.152 15.3484 149.94 14.3132 148.224 14.3132C146.361 14.3132 144.971 15.4075 144.971 17.9808V25.9667H141.155V11.1779H144.971V12.8343C145.858 11.5033 147.396 10.7639 149.378 10.7639Z" fill="#ACABC7"/>
<path d="M133.88 11.1779H137.695V25.9667H133.88V24.2216C132.815 25.5526 131.218 26.3808 129.058 26.3808C125.125 26.3808 121.871 22.9794 121.871 18.5723C121.871 14.1653 125.125 10.7639 129.058 10.7639C131.218 10.7639 132.815 11.592 133.88 12.923V11.1779ZM129.768 22.7428C132.135 22.7428 133.88 21.0568 133.88 18.5723C133.88 16.0878 132.135 14.4019 129.768 14.4019C127.432 14.4019 125.687 16.0878 125.687 18.5723C125.687 21.0568 127.432 22.7428 129.768 22.7428Z" fill="#ACABC7"/>
<path d="M112.732 10.7639C116.696 10.7639 119.949 14.1653 119.949 18.5723C119.949 22.9794 116.696 26.3808 112.732 26.3808C110.573 26.3808 109.006 25.5822 107.941 24.2216V31.8822H104.125V11.1779H107.941V12.923C109.006 11.5624 110.573 10.7639 112.732 10.7639ZM112.022 22.7428C114.389 22.7428 116.134 21.0568 116.134 18.5723C116.134 16.0878 114.389 14.4019 112.022 14.4019C109.686 14.4019 107.941 16.0878 107.941 18.5723C107.941 21.0568 109.686 22.7428 112.022 22.7428Z" fill="#ACABC7"/>
<path d="M95.2946 10.7639C98.6665 10.7639 100.885 13.1596 100.885 16.8568V25.9667H97.0693V17.123C97.0693 15.378 96.1819 14.3132 94.5848 14.3132C92.8988 14.3132 91.834 15.4371 91.834 17.6554V25.9667H88.0185V17.123C88.0185 15.378 87.1312 14.3132 85.534 14.3132C83.9073 14.3132 82.7537 15.4371 82.7537 17.6554V25.9667H78.9382V11.1779H82.7537V12.7456C83.5819 11.5033 84.9721 10.7639 86.865 10.7639C88.6988 10.7639 90.0594 11.5329 90.8876 12.8934C91.8045 11.5624 93.2833 10.7639 95.2946 10.7639Z" fill="#ACABC7"/>
<path d="M68.4159 26.3808C64.068 26.3808 60.6074 22.9794 60.6074 18.5723C60.6074 14.1653 64.068 10.7639 68.4159 10.7639C72.7638 10.7639 76.2539 14.1653 76.2539 18.5723C76.2539 22.9794 72.7638 26.3808 68.4159 26.3808ZM68.4159 22.654C70.6934 22.654 72.4384 20.9681 72.4384 18.5723C72.4384 16.1765 70.6934 14.4906 68.4159 14.4906C66.168 14.4906 64.4229 16.1765 64.4229 18.5723C64.4229 20.9681 66.168 22.654 68.4159 22.654Z" fill="#ACABC7"/>
<path d="M52.9052 26.3808C48.4094 26.3808 45.0967 22.9794 45.0967 18.5723C45.0967 14.1653 48.4094 10.7639 52.9052 10.7639C55.8038 10.7639 58.3178 12.3019 59.5305 14.5794L56.2474 16.5019C55.6559 15.2892 54.384 14.5202 52.8756 14.5202C50.5981 14.5202 48.9122 16.2061 48.9122 18.5723C48.9122 20.909 50.5981 22.5949 52.8756 22.5949C54.4136 22.5949 55.6854 21.8554 56.277 20.6428L59.5897 22.5357C58.3178 24.8428 55.8038 26.3808 52.9052 26.3808Z" fill="#ACABC7"/>
<path fill-rule="evenodd" clip-rule="evenodd" d="M12.5347 3.19586C11.2586 3.19586 10.224 4.23039 10.224 5.50655V12.7237H2.87367C1.59752 12.7237 0.562988 13.7583 0.562988 15.0344V32.0712C0.562988 33.3473 1.59752 34.3819 2.87368 34.3819H19.708C20.9842 34.3819 22.0187 33.3473 22.0187 32.0712V24.854H29.369C30.6452 24.854 31.6797 23.8194 31.6797 22.5433V5.50655C31.6797 4.23039 30.6452 3.19586 29.369 3.19586H12.5347ZM22.0187 24.854V15.0344C22.0187 13.7583 20.9842 12.7237 19.708 12.7237H10.224V22.5433C10.224 23.8194 11.2586 24.854 12.5347 24.854H22.0187Z" fill="#ACABC7"/>
</svg>
