<svg width="199" height="40" viewBox="0 0 199 40" fill="none" xmlns="http://www.w3.org/2000/svg">
<g clip-path="url(#clip0_1929_40064)">
<path d="M0.573975 32.9415V6.97182C0.573975 4.95648 1.64788 3.09385 3.392 2.08409C5.14241 1.07069 7.30109 1.07068 9.0515 2.08408L31.7189 15.2073C33.4199 16.1921 34.4793 17.9973 34.5095 19.9626C34.5406 21.984 33.4786 23.865 31.7316 24.8825L9.29198 37.9527C7.46011 39.0196 5.19201 39.002 3.37693 37.9067C1.63732 36.8569 0.573975 34.9733 0.573975 32.9415Z" fill="#524FFF"/>
<path d="M9.07501 24.1986V15.9689C9.07501 14.3725 10.7975 13.3698 12.1857 14.1582L19.511 18.3182C20.924 19.1207 20.9145 21.1602 19.494 21.9493L12.1687 26.0189C10.7807 26.79 9.07501 25.7864 9.07501 24.1986Z" fill="white"/>
<path d="M52.3793 12.3828H46.8786V8.1377H62.4241V12.3828H56.8935V29.0643H52.3793V12.3828Z" fill="#0F086A"/>
<path d="M68.5918 13.7281C69.688 13.7281 70.6945 13.9374 71.6113 14.3559C72.548 14.7545 73.3452 15.3125 74.0029 16.03C74.6805 16.7276 75.1987 17.5547 75.5574 18.5113C75.9361 19.468 76.1254 20.4944 76.1254 21.5905C76.1254 21.8695 76.1055 22.1286 76.0656 22.3678C76.0457 22.607 76.0158 22.8561 75.976 23.1152H64.9446C65.2436 23.9722 65.7418 24.6398 66.4394 25.1182C67.1369 25.5965 67.964 25.8356 68.9207 25.8356C69.5585 25.8356 70.1663 25.7061 70.7443 25.447C71.3223 25.1879 71.7807 24.8391 72.1195 24.4007L75.378 26.314C74.6805 27.3304 73.7737 28.1077 72.6576 28.6458C71.5614 29.1839 70.2959 29.453 68.8609 29.453C67.6053 29.453 66.4693 29.2537 65.4528 28.8551C64.4563 28.4565 63.5993 27.9084 62.8819 27.2108C62.1843 26.4933 61.6362 25.6563 61.2376 24.6996C60.859 23.743 60.6696 22.7066 60.6696 21.5905C60.6696 20.4744 60.859 19.4381 61.2376 18.4814C61.6362 17.5248 62.1843 16.6977 62.8819 16.0001C63.5794 15.2826 64.4065 14.7246 65.3632 14.326C66.3397 13.9274 67.416 13.7281 68.5918 13.7281ZM72.1195 19.7968C71.98 19.0395 71.5714 18.4515 70.8938 18.033C70.2361 17.6145 69.4389 17.4052 68.5022 17.4052C68.0238 17.4052 67.5654 17.475 67.127 17.6145C66.6885 17.734 66.2999 17.9035 65.9611 18.1227C65.6422 18.322 65.3831 18.5711 65.1838 18.8701C64.9845 19.1491 64.8749 19.458 64.8549 19.7968H72.1195Z" fill="#0F086A"/>
<path d="M92.1558 26.1346C91.4383 27.151 90.5215 27.9682 89.4054 28.586C88.2893 29.2038 87.0636 29.5127 85.7283 29.5127C84.6521 29.5127 83.6357 29.3035 82.679 28.8849C81.7224 28.4664 80.8853 27.8984 80.1678 27.1809C79.4503 26.4634 78.8823 25.6264 78.4638 24.6697C78.0453 23.7131 77.836 22.6966 77.836 21.6204C77.836 20.5243 78.0453 19.4979 78.4638 18.5412C78.8823 17.5846 79.4503 16.7475 80.1678 16.03C80.8853 15.3125 81.7224 14.7545 82.679 14.3559C83.6357 13.9374 84.6521 13.7281 85.7283 13.7281C87.0437 13.7281 88.2594 14.027 89.3755 14.6249C90.4916 15.2229 91.4084 16.03 92.1259 17.0465L88.5983 19.3783C88.1997 18.9199 87.7612 18.5711 87.2829 18.332C86.8245 18.0928 86.3063 17.9732 85.7283 17.9732C85.2301 17.9732 84.7617 18.0729 84.3232 18.2722C83.8848 18.4515 83.4961 18.7106 83.1573 19.0494C82.8385 19.3683 82.5794 19.757 82.3801 20.2153C82.2007 20.6538 82.111 21.1222 82.111 21.6204C82.111 22.1187 82.2007 22.587 82.3801 23.0255C82.5794 23.464 82.8385 23.8526 83.1573 24.1914C83.4961 24.5103 83.8848 24.7694 84.3232 24.9687C84.7617 25.1481 85.2301 25.2377 85.7283 25.2377C86.3063 25.2377 86.8344 25.1082 87.3128 24.8491C87.811 24.59 88.2395 24.2512 88.5983 23.8327L92.1558 26.1346Z" fill="#0F086A"/>
<path d="M94.0716 8.1377H98.3466V15.193C98.805 14.7944 99.3332 14.4655 99.9311 14.2064C100.549 13.9473 101.207 13.8178 101.904 13.8178C102.442 13.8178 103.05 13.9075 103.728 14.0868C104.405 14.2463 105.043 14.5652 105.641 15.0435C106.239 15.5019 106.747 16.1396 107.166 16.9568C107.584 17.7739 107.794 18.8302 107.794 20.1257L107.823 29.0643H103.548V20.2452C103.548 19.7271 103.459 19.2986 103.279 18.9597C103.12 18.601 102.911 18.322 102.652 18.1227C102.392 17.9035 102.103 17.754 101.785 17.6743C101.466 17.5746 101.147 17.5248 100.828 17.5248C100.27 17.5248 99.7517 17.7042 99.2734 18.0629C98.7951 18.4017 98.4862 19.0096 98.3466 19.8865V29.0643H94.0716V8.1377Z" fill="#0F086A"/>
<path d="M110.567 14.1167H114.842V15.2826C115.3 14.8043 115.848 14.4256 116.486 14.1466C117.124 13.8676 117.861 13.7281 118.698 13.7281C119.874 13.7281 120.93 13.9274 121.867 14.326C122.804 14.7246 123.591 15.2727 124.229 15.9702C124.886 16.6678 125.385 17.4949 125.723 18.4515C126.082 19.4082 126.262 20.4545 126.262 21.5905C126.262 22.7265 126.082 23.7828 125.723 24.7594C125.385 25.7161 124.886 26.5531 124.229 27.2706C123.591 27.9682 122.804 28.5162 121.867 28.9148C120.93 29.3134 119.874 29.5127 118.698 29.5127C117.861 29.5127 117.124 29.3633 116.486 29.0643C115.848 28.7853 115.3 28.4066 114.842 27.9283V35.0434H110.567V14.1167ZM118.578 17.6743C118.02 17.6743 117.512 17.7739 117.054 17.9732C116.595 18.1725 116.197 18.4515 115.858 18.8103C115.539 19.1491 115.29 19.5577 115.111 20.036C114.931 20.5143 114.842 21.0424 114.842 21.6204C114.842 22.7564 115.18 23.6832 115.858 24.4007C116.556 25.1182 117.462 25.4769 118.578 25.4769C119.097 25.4769 119.575 25.3772 120.013 25.1779C120.452 24.9587 120.821 24.6797 121.12 24.3409C121.438 23.9821 121.678 23.5736 121.837 23.1152C122.016 22.6369 122.106 22.1286 122.106 21.5905C122.106 21.0524 122.016 20.5442 121.837 20.0659C121.678 19.5875 121.438 19.179 121.12 18.8402C120.821 18.4814 120.452 18.2024 120.013 18.0031C119.575 17.7839 119.097 17.6743 118.578 17.6743Z" fill="#0F086A"/>
<path d="M135.943 29.5127C134.867 29.5127 133.85 29.3035 132.894 28.8849C131.937 28.4664 131.1 27.8984 130.382 27.1809C129.665 26.4634 129.097 25.6264 128.678 24.6697C128.26 23.7131 128.051 22.6966 128.051 21.6204C128.051 20.5243 128.26 19.4979 128.678 18.5412C129.097 17.5846 129.665 16.7475 130.382 16.03C131.1 15.3125 131.937 14.7545 132.894 14.3559C133.85 13.9374 134.867 13.7281 135.943 13.7281C137.019 13.7281 138.036 13.9374 138.992 14.3559C139.949 14.7545 140.786 15.3125 141.503 16.03C142.221 16.7475 142.789 17.5846 143.207 18.5412C143.626 19.4979 143.835 20.5243 143.835 21.6204C143.835 22.6966 143.626 23.7131 143.207 24.6697C142.789 25.6264 142.221 26.4634 141.503 27.1809C140.786 27.8984 139.949 28.4664 138.992 28.8849C138.036 29.3035 137.019 29.5127 135.943 29.5127ZM135.943 25.2377C136.441 25.2377 136.909 25.1481 137.348 24.9687C137.786 24.7694 138.165 24.5103 138.484 24.1914C138.823 23.8526 139.082 23.464 139.261 23.0255C139.461 22.587 139.56 22.1187 139.56 21.6204C139.56 21.1222 139.461 20.6538 139.261 20.2153C139.082 19.757 138.823 19.3683 138.484 19.0494C138.165 18.7106 137.786 18.4515 137.348 18.2722C136.909 18.0729 136.441 17.9732 135.943 17.9732C135.445 17.9732 134.976 18.0729 134.538 18.2722C134.099 18.4515 133.711 18.7106 133.372 19.0494C133.053 19.3683 132.794 19.757 132.595 20.2153C132.415 20.6538 132.326 21.1222 132.326 21.6204C132.326 22.1187 132.415 22.587 132.595 23.0255C132.794 23.464 133.053 23.8526 133.372 24.1914C133.711 24.5103 134.099 24.7694 134.538 24.9687C134.976 25.1481 135.445 25.2377 135.943 25.2377Z" fill="#0F086A"/>
<path d="M153.489 29.5127C152.413 29.5127 151.396 29.3035 150.439 28.8849C149.483 28.4664 148.646 27.8984 147.928 27.1809C147.211 26.4634 146.643 25.6264 146.224 24.6697C145.806 23.7131 145.596 22.6966 145.596 21.6204C145.596 20.5243 145.806 19.4979 146.224 18.5412C146.643 17.5846 147.211 16.7475 147.928 16.03C148.646 15.3125 149.483 14.7545 150.439 14.3559C151.396 13.9374 152.413 13.7281 153.489 13.7281C154.565 13.7281 155.581 13.9374 156.538 14.3559C157.495 14.7545 158.332 15.3125 159.049 16.03C159.767 16.7475 160.335 17.5846 160.753 18.5412C161.172 19.4979 161.381 20.5243 161.381 21.6204C161.381 22.6966 161.172 23.7131 160.753 24.6697C160.335 25.6264 159.767 26.4634 159.049 27.1809C158.332 27.8984 157.495 28.4664 156.538 28.8849C155.581 29.3035 154.565 29.5127 153.489 29.5127ZM153.489 25.2377C153.987 25.2377 154.455 25.1481 154.894 24.9687C155.332 24.7694 155.711 24.5103 156.03 24.1914C156.369 23.8526 156.628 23.464 156.807 23.0255C157.006 22.587 157.106 22.1187 157.106 21.6204C157.106 21.1222 157.006 20.6538 156.807 20.2153C156.628 19.757 156.369 19.3683 156.03 19.0494C155.711 18.7106 155.332 18.4515 154.894 18.2722C154.455 18.0729 153.987 17.9732 153.489 17.9732C152.991 17.9732 152.522 18.0729 152.084 18.2722C151.645 18.4515 151.257 18.7106 150.918 19.0494C150.599 19.3683 150.34 19.757 150.141 20.2153C149.961 20.6538 149.871 21.1222 149.871 21.6204C149.871 22.1187 149.961 22.587 150.141 23.0255C150.34 23.464 150.599 23.8526 150.918 24.1914C151.257 24.5103 151.645 24.7694 152.084 24.9687C152.522 25.1481 152.991 25.2377 153.489 25.2377Z" fill="#0F086A"/>
<path d="M168.984 29.0643C168.585 29.1241 168.187 29.1739 167.788 29.2138C167.409 29.2537 167.051 29.2736 166.712 29.2736C166.114 29.2736 165.576 29.2038 165.097 29.0643C164.619 28.9248 164.201 28.6757 163.842 28.3169C163.503 27.9582 163.244 27.4799 163.065 26.882C162.885 26.2841 162.796 25.5267 162.796 24.6099V8.1377H167.071V24.3409C167.071 24.7993 167.21 25.0783 167.489 25.1779C167.788 25.2577 168.286 25.2477 168.984 25.1481V29.0643Z" fill="#0F086A"/>
<path d="M193.046 29.0643L188.532 22.039L184.017 29.0643H178.636L185.393 18.6309L178.606 8.1377H183.987L188.532 15.193L193.076 8.1377H198.457L191.671 18.6309L198.427 29.0643H193.046Z" fill="#0F086A"/>
</g>
<defs>
<clipPath id="clip0_1929_40064">
<rect width="199" height="40" fill="white"/>
</clipPath>
</defs>
</svg>
